<svg xmlns:xlink="http://www.w3.org/1999/xlink" height="131.25" viewBox="0 0 191.25 131.25"
    width="191.25" xmlns="http://www.w3.org/2000/svg">
    <clipPath id="a">
        <path d="m0 105h153v-105h-153z" />
    </clipPath>
    <g clip-path="url(#a)" fill="#2196f3" transform="matrix(1.25 0 0 -1.25 0 131.25)">
        <path
            d="m86.771 38.011h-2.729v21.802h2.729zm-67.847 4.25c.79.361 1.674.563 2.608.563 3.286 0 5.959-2.5 6.051-5.618 2.568-.865 4.409-3.202 4.409-5.951 0-3.109-2.355-5.691-5.454-6.212l-.051-.098h-15.414l.02.069c-3.764.485-6.667 3.564-6.667 7.293 0 2.54 1.346 4.779 3.394 6.102-.032.241-.05.485-.05.734 0 3.194 2.711 5.784 6.055 5.784 2.142 0 4.023-1.063 5.099-2.666m37-10.237c-7.21-7.304-14.138-6.873-22.454-7.079 0 0-2.042.021-2.199.005 1.222 1.133 2.38 2.383 2.897 4.382 0 0 5.998-.417 10.141.74 6.974 1.947 10.479 6.654 12.105 12.175.868 2.948 1.452 6.583 1.452 10.722 0 5.39-.582 8.017-1.45 10.965-.868 2.949-2.364 5.612-4.351 7.311-4.84 4.136-9.665 5.889-30.955 5.361-4.832-.12-5.078-.488-5.078-5.361v-24.856c-1.657.61-2.745.748-4.352 0 .006 16.414-.011 36.183 0 29.729.082 1.407.725 4.874 4.594 4.874 5.587 0 17.169.244 17.169.244 10.173 0 18.246-3.19 22.457-7.716s6.316-11.393 6.316-20.599c0-13.208-4.569-19.151-6.292-20.897m5.374-29.191c0-.093 10.097 4.827 10.097 16.166v67.238s.229 10.777-10.097 15.931c0 0 11.703-2.015 13.309-15.931.046-13.494 0-67.004 0-67.004s0-13.026-13.309-16.4m24.088 61.45c-.56 0-1.036.189-1.427.569-.393.38-.588.892-.588 1.539s.195 1.16.588 1.539c.391.38.867.57 1.427.57s1.035-.19 1.427-.57c.392-.379.588-.892.588-1.539s-.196-1.159-.588-1.539-.867-.569-1.427-.569m20.277-16.236c-.308.14-.798.288-1.469.443-.672.154-1.596.232-2.771.232-.672 0-1.372-.05-2.099-.148-.728-.099-1.4-.309-2.015-.632-.616-.324-1.12-.767-1.512-1.329s-.587-1.307-.587-2.235c0-.816.132-1.504.398-2.066.266-.563.644-1.012 1.134-1.35.489-.337 1.077-.583 1.763-.738.686-.154 1.462-.231 2.33-.231 1.063 0 1.994.034 2.792.105.798.07 1.476.161 2.036.274zm-.336-10.121c-.7-.112-1.476-.203-2.33-.274-.854-.07-1.728-.105-2.624-.105-1.148 0-2.204.126-3.169.379-.966.253-1.805.654-2.519 1.202s-1.274 1.251-1.679 2.109c-.406.857-.609 1.904-.609 3.141 0 1.181.224 2.193.672 3.037.447.843 1.077 1.539 1.889 2.087.811.548 1.777.949 2.896 1.202 1.12.253 2.337.379 3.653.379.391 0 .804-.021 1.238-.063s.854-.099 1.26-.169c.405-.07.755-.141 1.049-.21.294-.071.497-.134.609-.19v1.349c0 .759-.057 1.497-.168 2.214-.112.717-.357 1.364-.735 1.94-.377.576-.909 1.04-1.595 1.392-.686.351-1.589.527-2.708.527-1.595 0-2.785-.113-3.568-.338-.784-.225-1.358-.408-1.721-.548l-.378 2.404c.475.225 1.21.435 2.204.632.993.197 2.19.296 3.589.296 1.428 0 2.638-.205 3.632-.612.993-.408 1.798-.97 2.414-1.687.615-.717 1.063-1.567 1.343-2.551.279-.984.42-2.053.42-3.205v-13.747c-.28-.085-.686-.176-1.218-.274-.532-.099-1.148-.205-1.847-.317m19.71 19.673c-.687.126-1.589.189-2.708.189-1.176 0-2.12-.084-2.834-.253-.714-.168-1.182-.309-1.406-.421v-19.103h-2.729v20.789c.699.31 1.665.626 2.897.949 1.231.323 2.728.485 4.492.485.895 0 1.742-.07 2.54-.211.797-.141 1.35-.281 1.658-.421l-.546-2.362c-.224.112-.679.232-1.364.359m19.751-2.193c-1.259 1.616-2.966 2.425-5.121 2.425-2.156 0-3.863-.809-5.122-2.425-1.259-1.617-1.889-3.789-1.889-6.515 0-2.728.63-4.892 1.889-6.495 1.259-1.602 2.966-2.403 5.122-2.403 2.155 0 3.862.801 5.121 2.403 1.26 1.603 1.89 3.767 1.89 6.495 0 2.726-.63 4.898-1.89 6.515m4.052-11.196c-.49-1.407-1.176-2.601-2.057-3.585-.882-.984-1.925-1.75-3.128-2.298-1.204-.548-2.533-.822-3.988-.822-1.456 0-2.785.274-3.988.822-1.204.548-2.246 1.314-3.128 2.298s-1.568 2.178-2.057 3.585c-.49 1.405-.735 2.965-.735 4.681 0 1.714.245 3.274.735 4.68.489 1.406 1.175 2.608 2.057 3.606s1.924 1.771 3.128 2.319c1.203.549 2.532.823 3.988.823 1.455 0 2.784-.274 3.988-.823 1.203-.548 2.246-1.321 3.128-2.319.881-.998 1.567-2.2 2.057-3.606.489-1.406.734-2.966.734-4.68 0-1.716-.245-3.276-.734-4.681"
            fill="#2196f3" fill-rule="evenodd" />
    </g>
</svg>